<?xml version="1.0" encoding="utf-8"?>
<!-- Generator: Adobe Illustrator 24.0.2, SVG Export Plug-In . SVG Version: 6.00 Build 0)  -->
<svg version="1.1" id="Layer_1" xmlns="http://www.w3.org/2000/svg" xmlns:xlink="http://www.w3.org/1999/xlink" x="0px" y="0px"
	 viewBox="0 0 512 512" style="enable-background:new 0 0 512 512;" xml:space="preserve">
<style type="text/css">
	.st0{fill:none;stroke:#F68E3C;stroke-width:0.831;stroke-linecap:round;stroke-miterlimit:10;}
	.st1{fill:#50322E;}
	.st2{fill:#D67427;}
	.st3{fill:none;}
	.st4{fill:none;stroke:#F68E3C;stroke-width:1.5537;stroke-linecap:round;stroke-miterlimit:10;}
	.st5{fill:none;stroke:#F39A6F;stroke-width:0.554;stroke-linecap:round;stroke-miterlimit:10;}
</style>
<g>
	<path class="st0" d="M251.5985,297.7407c0,0,13.3923-12.1059,44.6801-18.8889c11.6867-2.5522,32.5911-12.7444,30.8314-36.7209
		c-1.7961-23.9579,26.5194-25.599,39.346-24.1222"/>
	<path class="st0" d="M280.6431,193.8866c0,0-13.4557,21.6978-35.1984,29.5739c-21.751,7.8948-33.7664,38.0885-27.9412,50.7424"/>
	<path class="st1" d="M228.6796,270.0824l112.7337-118.7876c0,0,64.0516-115.0853,136.4452-143.8022
		c0,0,17.4764-7.2012,2.3161,28.3342c-15.152,35.5176-110.3906,126.955-145.954,153.7937
		c-35.5718,26.8574-90.1519,106.5529-90.1519,106.5529S217.9133,299.6917,228.6796,270.0824z"/>
	<path class="st2" d="M158.7207,451.316c26.2739-21.4056,41.4343-47.4051,42.3641-82.1937c0,0,36.2654-11.9239,38.7084-58.3086
		c0,0,32.9831-20.9855,32.1719-28.899c-0.8121-7.8948-29.1183-40.6949-38.7635-36.7938
		c-9.6545,3.9198-24.7691,32.3633-20.9127,39.5654c0,0-40.3589-4.4118-52.8027,44.3786c0,0-49.092-23.4108-89.8784,48.39
		c0,0-11.7054,18.5976-44.5158,23.1009c0,0-0.1727,1.7326-0.2362,4.7404c9.0617-0.7291,29.4824-3.3364,39.0538-12.4532
		c0,0-15.0231,16.3366-38.981,19.6011c0.1634,4.3026,0.6199,9.535,1.5674,15.3153c11.7969-4.3035,44.9079-17.103,60.634-30.8323
		c2.6708-2.5887,4.2111-4.1934,4.2111-4.1934c-1.194,1.404-2.6344,2.808-4.2111,4.1934
		c-10.1651,9.8094-36.7667,33.9867-58.6923,40.2403c1.2584,4.9953,2.9453,10.2099,5.1605,15.4068
		c0.1456-0.0551,25.2891-14.0392,33.9587-19.4359c7.1741-4.4678-21.5335,16.5551-31.8442,24.0848
		c4.5406,9.2446,10.9586,18.2877,19.9559,26.0181c5.5797-5.2874,17.777-16.8463,21.9433-21.2591
		c0,0-13.5192,16.2638-19.4546,23.3193c4.549,3.5922,9.7273,6.8558,15.6169,9.6638c0.0821-0.1092,12.189-16.1546,24.4041-34.2593
		l0.5106,0.492c-7.9947,13.4016-16.5457,27.2215-22.2159,34.9529c8.7518,3.8106,18.9346,6.6364,30.8855,8.0581l23.338-41.3148
		c0.8663-1.8054,1.7961-3.538,2.8995-5.1241l-2.8995,5.1241c-6.7279,13.9655-7.6297,33.8765-7.7025,42.3184
		c3.9012,0.0541,7.9312-0.0187,12.1339-0.2371C135.1278,504.9756,132.4561,472.7393,158.7207,451.316z"/>
	<path class="st3" d="M130.6964,462.8944l2.8995-5.1241C132.4925,459.3564,131.5627,461.089,130.6964,462.8944z"/>
	<path class="st4" d="M157.5267,323.6319c0,0,11.1126,31.9442,48.5262,46.0562"/>
	<path class="st4" d="M245.4904,312.6369c-25.4711-12.1423-36.9945-32.873-36.9945-32.873"/>
	<path class="st0" d="M248.1622,309.8111c0,0,35.0154-7.147,36.593,6.2172C284.7552,316.0284,284.0075,334.9546,248.1622,309.8111z"
		/>
	<path class="st0" d="M246.5752,313.6768c0,0,25.0519,25.5075,14.6684,34.095
		C261.2436,347.7718,244.9714,357.4356,246.5752,313.6768z"/>
	<path class="st5" d="M192.5514,380.9379c0,0-5.6245,26.7472-17.9861,43.5216"/>
	<path class="st5" d="M170.0247,430.421c-0.4369,0.4742-6.5907,10.4657-16.71,16.4467"/>
	<path class="st5" d="M146.4496,331.8366c0,0-22.3261-3.0629-37.24,9.5172"/>
	<path class="st5" d="M103.0651,345.3101c0,0-7.3757,4.0113-10.6029,8.6789"/>
	<path class="st5" d="M65.1586,387.775c0,0,11.0127-9.7366,16.246-19.6366"/>
</g>
</svg>
