<?xml version="1.0" ?><svg viewBox="0 0 60 60" xmlns="http://www.w3.org/2000/svg"><title/><g id="colour"><path d="M20.26,47.26C16.86,54.12,11.02,59,1,59c0-7.64,5.23-13.28,13.75-17.25Z" fill="#5d4038"/><path d="M17,44C10,47,5,50,2,58.16942c-.603-.02728-.38161.92309-1,.82322,1.59752-9.89185,7.34618-14.87909,14.66049-17.14192Z" fill="#664a44"/><path d="M18.26,45.51C15.1076,51.87036,10,56,1,58a4.827,4.827,0,0,0,0,1c10.02,0,15.86-4.88,19.26-11.74Z" fill="#49322e"/><path d="M22,43a32.7517,32.7517,0,0,1-1.74,4.26l-5.51-5.51c1.33-.62,2.76-1.21,4.25-1.75Z" fill="#49322e"/><polygon fill="#f57b02" points="26 38 22 43 19 40 23 35 26 38"/><path d="M59,1V6L52.62,8.39a7.99193,7.99193,0,0,0-2.85,1.84L37.46,22.54a3.98993,3.98993,0,0,0-.75,1.04l-2.47,4.95a4.59529,4.59529,0,0,1-.59.87L26,38l-3-3,6.66-7.61a3.71835,3.71835,0,0,0,.57-.85l2.48-4.96a3.98993,3.98993,0,0,1,.75-1.04L47,7C50,4,55,1,59,1Z" fill="#49322e"/></g><g data-name="Layer 1" id="Layer_1"><path d="M59,.00036c-4.40723,0-9.67627,3.26221-12.707,6.293l-13.541,13.541a4.99943,4.99943,0,0,0-.937,1.29932l-2.48,4.96045a3.00579,3.00579,0,0,1-.42529.63379l-6.69043,7.64795-3.82568,4.78174C6.188,43.65856,0,50.33385,0,59.00036a1,1,0,0,0,1,1c10.81836,0,18.18262-5.55566,21.8916-16.51367l1.4389-1.79932,2.71136,2.34576.91321,8.59808L26.293,54.29332A.99989.99989,0,1,0,27.707,55.70739l2-2a.99931.99931,0,0,0,.2876-.8125l-.73755-6.94531,1.8811,1.62744.91309,2.73975a1,1,0,0,0,1.65576.39063l3-3A.99989.99989,0,0,0,35.293,46.29332l-1.856,1.856-.48828-1.46533a1.00042,1.00042,0,0,0-.29443-.43994l-7.07367-6.11987,1.16693-1.45923,7.64844-8.605a5.01081,5.01081,0,0,0,.73535-1.08545L37.604,24.02819a2.99886,2.99886,0,0,1,.562-.77979L50.48193,10.93248a6.94941,6.94941,0,0,1,2.4917-1.604l6.37744-2.3916A1.00051,1.00051,0,0,0,60,6.00036v-5A1,1,0,0,0,59,.00036ZM20.84314,43.25756q-.418,1.1879-.89459,2.27728l-3.458-3.458q1.09149-.468,2.26208-.90979ZM2.03369,57.98229c.41309-6.16064,4.6228-11.19348,12.51428-15.0199l4.48621,4.48621C15.44922,54.23638,9.84931,57.70556,2.03369,57.98229ZM21.91718,41.50347,20.33972,39.926l2.74268-3.4292,1.57782,1.57782ZM58,5.30748,52.27149,7.45543a8.94078,8.94078,0,0,0-3.20361,2.063L36.752,21.83434a4.99943,4.99943,0,0,0-.937,1.29932l-2.47217,4.9458a3.00011,3.00011,0,0,1-.44189.65186l-6.94281,7.813-1.58948-1.58948,6.04645-6.9101a5.02381,5.02381,0,0,0,.709-1.05615l2.48-4.96045a2.99887,2.99887,0,0,1,.562-.77979l13.541-13.541C50.2915,5.12291,54.49854,2.50914,58,2.06627Z"/></g></svg>