<?xml version="1.0" encoding="utf-8"?>
<!-- Generator: Adobe Illustrator 24.0.2, SVG Export Plug-In . SVG Version: 6.00 Build 0)  -->
<svg version="1.1" id="Layer_1" xmlns="http://www.w3.org/2000/svg" xmlns:xlink="http://www.w3.org/1999/xlink" x="0px" y="0px"
	 viewBox="0 0 512 512" style="enable-background:new 0 0 512 512;" xml:space="preserve">
<style type="text/css">
	.st0{fill:#F16724;}
	.st1{fill:#020325;}
	.st2{fill:none;stroke:#FFFFFF;stroke-width:7;stroke-linecap:round;stroke-miterlimit:10;}
	.st3{fill:none;stroke:#FFFFFF;stroke-width:5;stroke-linecap:round;stroke-miterlimit:10;}
</style>
<path class="st0" d="M312.4775,339.6582c0,0-146.3664,2.8626-184.1108,19.4486
	C128.3667,359.1068,224.3831,403.1536,312.4775,339.6582z"/>
<path class="st1" d="M378.0317,442.3432l39.1898,21.0403c3.9511-2.2051,7.7758-4.5377,11.4525-6.9891l-21.8448-23.0617
	l30.9014,16.5851c3.7507-2.918,7.3-6.0007,10.6666-9.2306l-10.9045-11.5173l14.5822,7.8218
	c10.7764-11.3347,19.1003-24.5259,23.9677-39.8483c0,0,22.5033-42.3182-26.4931-41.184c0,0,38.4038,41.184-19.8684,37.7631
	c-58.2908-3.4398-67.5486,6.8607-109.9401-16.0278l-173.4804,19.4486c0,0-104.6522,83.5297-124.5216,105.2649
	c0,0,98.0108-30.892,164.2414-12.587c44.8429,12.3951,146.787,13.2457,218.2139-19.8422L378.0317,442.3432z"/>
<g>
	<g>
		<g>
			<path class="st1" d="M467.3878,416.6006l-10.7023-5.7358l8.6536,9.1305C466.053,418.8787,466.7293,417.7537,467.3878,416.6006z"
				/>
		</g>
		<g>
			<path class="st1" d="M436.4322,445.0691l-39.2084-21.0309l26.181,27.636c-5.1043,2.3596-10.3913,4.5375-15.7709,6.5589
				l9.5875,5.1503c3.9511-2.2051,7.7758-4.5377,11.4525-6.9891l-21.8448-23.0617l30.9014,16.5851
				c3.7507-2.918,7.3-6.0007,10.6666-9.2306l-1.7375-1.8296C443.3473,441.0262,439.9629,443.102,436.4322,445.0691z"/>
		</g>
		<g>
			<path class="st1" d="M205.1733,471.5162c-63.8711-17.6557-157.2899,10.4559-163.8208,12.4682
				c-8.782,7.7393-15.7711,14.2339-19.6137,18.4238c0,0,98.0108-30.892,164.2414-12.587
				c44.8429,12.3951,146.787,13.2457,218.2139-19.8422l-7.4827-7.9042C328.4865,484.3777,244.6917,482.4387,205.1733,471.5162z"/>
		</g>
		<g>
			<path class="st1" d="M426.0399,415.0277l15.4048,16.2647l10.6302,5.6992c1.6647-1.7469,3.2562-3.5765,4.7934-5.4153
				L426.0399,415.0277z"/>
		</g>
	</g>
</g>
<path class="st1" d="M176.3749,56.0456c0,0,22.3396,46.3435-17.875,50.2039c-26.2355,2.5151-64.5651-39.4734-12.4222-63.5048
	c23.235-10.6938,46.8552-18.2956,92.5578,19.4571c0,0,55.6194,68.4452-27.498,150.4562
	c-34.6897,34.2315-61.5658,109.8382-75.4885,169.9041c0,0,101.322,12.0202,176.8284-25.7428c0,0-53.6428-106.4085-25.8337-159.6128
	c27.8101-53.2034,57.6136-169.9124-61.5834-188.7757c0,0-153.9775-27.4709-139.0664,102.1089
	C100.8864,240.1104,294.2549,113.1101,176.3749,56.0456z"/>
<g>
	<path class="st1" d="M286.6438,197.198c27.8101-53.195,57.6136-169.9039-61.5834-188.7673c0,0-20.3994-3.6411-45.5932-2.0214
		c11.3805,0.6857,18.7714,2.0214,18.7714,2.0214c119.197,18.8634,89.3936,135.5723,61.5834,188.7673
		c-27.8091,53.2128,25.8158,159.6213,25.8158,159.6213c-40.8177,20.4088-89.1556,26.2636-124.9786,27.3437
		c34.817,1.0791,99.4927-1.1803,151.8183-27.3437C312.4775,356.8193,258.8347,250.4108,286.6438,197.198z"/>
</g>
<path class="st0" d="M312.4775,339.6582c0,0,23.8214,24.5989,21.8458,48.6301c0,0-117.88,46.901-214.5735,26.8763
	c0,0-1.3172-29.7399,8.617-56.0578C128.3667,359.1068,227.6954,381.4182,312.4775,339.6582z"/>
<path class="st2" d="M307.4826,351.6598c0,0,11.9295,17.162,13.9239,27.041c0,0-31.6152,23.1723-84.8382,27.8831"/>
<path class="st2" d="M290.6139,339.6582c0,0-20.8567-55.3448-20.8567-68.2249"/>
<path class="st2" d="M266.7746,256.4124c0,0-1.9944-8.1515,0-22.7423"/>
<path class="st3" d="M172.405,110.9697c0,0-38.2568,15.0208-53.6437-12.4501"/>
<path class="st3" d="M112.4683,87.9351c0,0-6.6049-17.445,3.3292-28.8799"/>
<line class="st2" x1="222.7372" y1="407.7371" x2="206.5081" y2="409.4476"/>
</svg>
