<?xml version="1.0" ?><svg viewBox="0 0 60 60" xmlns="http://www.w3.org/2000/svg"><title/><g id="text"><text font-family="MyriadPro-Regular, Myriad Pro" font-size="9" transform="translate(7.62109 67.39014)"><tspan letter-spacing="0.00602em"/><tspan x="4.49121" y="0"/><tspan letter-spacing="0.02398em" x="9.43213" y="0"/><tspan x="12.59082" y="0"/><tspan letter-spacing="-0.00401em" x="35.47754" y="0"/><tspan x="39.7793" y="0"/></text></g><g id="colour"><polygon fill="#5d4038" points="59 59 1 59 13 54 47 54 59 59"/><polygon fill="#664a44" points="13 54 1 59 6 59 18 54 13 54"/><polygon fill="#49322e" points="47 54 13 54 16 50 44 50 47 54"/><polygon fill="#5d4038" points="16 50 13 54 16 54 19 50 16 50"/><polygon fill="#5d4038" points="34 40 22 45 35 44 45 46 44 50 16 50 14 46 19 42 17 38 21 31 19 29 26 17 29 17 34 6 40 4 40 7 43 9 49 9 54 17 43 13.62 43 13.59 41 13 43 13.62 43 17 39 19 43 24 41 27 43 30 42.18 30.55 37 34 30 27 23 24 26 31 30 34 25 39 37 34 40 37 43 35 42 31 43.47 34.92 45 39 41.7 43.53 37 40 34 40"/><polygon fill="#5d4038" points="44 13 46 13.62 46 13.59 44 13"/><polygon fill="#664a44" points="34 6 28.5 17 26 17 19 29 21 31 17 38 19 42 14 46 16 50 19 50 17 46 22 42 20 38 24 31 22 29 23.812 25.894 23 24 24.533 24.657 27.25 20 31 20 37 6 40 5 40 4 34 6"/><polygon fill="#49322e" points="25 39 30 34 26 31 23 24 30 27 37 34 25 39"/><polygon fill="#49322e" points="43.47 34.92 42 31 43 35 40 37 37 34 42.18 30.55 43.61 34.83 43.47 34.92"/><polygon fill="#49322e" points="45 46 35 44 22 45 34 40 37 40 45 46"/></g><g data-name="Layer 1" id="Layer_1"><path d="M59.38477,58.0775,47.63672,53.182l-2.55078-3.40088.87891-3.51562a1.01,1.01,0,0,0,.02734-.39307l-.001-.00342v-.00146l-.001-.00342v-.00586l-.001-.00293v-.00293l-.001-.00342a.99367.99367,0,0,0-.38379-.645v-.00049c-.01074-.00244-.00293-.002-.00293-.002l-.002-.001-2.55994-1.91992,2.76013-3.68018a1.00122,1.00122,0,0,0,.13672-.95117l-2.82141-7.5238.43958-.29309a.9993.9993,0,0,0,.27734-1.38672l-1.62988-2.44531L43.832,24.555a1.00108,1.00108,0,0,0-.05078-1.1792l-3.22754-4.03418,2.89355-1.44678A.99985.99985,0,0,0,44,17.00036V14.96947l9.70605,2.98645a.99947.99947,0,0,0,1.1416-1.48535l-5-8A.99932.99932,0,0,0,49,8.00036H43.30274L41,6.4652V4.00036a1.00015,1.00015,0,0,0-1.31641-.94873l-6,2a.9996.9996,0,0,0-.59375.53516l-4.7334,10.41357H26a1.00176,1.00176,0,0,0-.86426.49609l-7,12a1.00046,1.00046,0,0,0,.15723,1.21094l1.46,1.46-3.62109,6.33691a.99994.99994,0,0,0-.02637.94336l1.63867,3.27686L13.375,45.21959a.99977.99977,0,0,0-.26953,1.228l1.72363,3.44727L12.36328,53.182.61524,58.0775A.99993.99993,0,0,0,1,60.00036H59a.99993.99993,0,0,0,.38477-1.92285ZM16.49988,51.00036H43.50012l1.5,2H14.99988Zm25.685-16.65845L40.127,35.71373,38.5694,34.15587,41.406,32.26482ZM30.59961,33.20055l-3.78613-2.83984-1.90991-4.45679,4.52515,1.9397,5.80847,5.808-5.95593,2.48151L30.707,34.70739a1.00008,1.00008,0,0,0-.10742-1.50684Zm-4.02539-15.2002H29a.99856.99856,0,0,0,.91016-.58643l4.81934-10.603L39,5.38756V7.00036a.99963.99963,0,0,0,.44531.832l3,2a1.001,1.001,0,0,0,.55469.168h5.44531l3.28516,5.25537L41.29395,12.04479a.99976.99976,0,1,0-.58789,1.91113L42,14.35405v2.02814l-3.44727,1.72363a1.00072,1.00072,0,0,0-.334,1.519l3.54395,4.4292L40.168,26.44567a1.00107,1.00107,0,0,0,0,1.10938l1.44531,2.168-4.486,2.9906L30.707,26.29332a.99342.99342,0,0,0-.31348-.21191L23.5669,23.15569ZM19.625,42.78112a.99977.99977,0,0,0,.26953-1.228l-1.76074-3.52148,3.73438-6.53516a.99928.99928,0,0,0-.16113-1.20312L20.252,28.83825l2.15234-3.68964,2.67676,6.24579a.99144.99144,0,0,0,.31934.40576l3.07715,2.30859L24.293,38.29332a.99979.99979,0,0,0,1.0918,1.62988l11.38165-4.74237L39.293,37.70739a.99973.99973,0,0,0,1.26172.125l2.35126-1.5675.96515,2.57385-2.43127,3.242-3.84021-2.88019A.99718.99718,0,0,0,37,39.00036H34a1.00239,1.00239,0,0,0-.38477.07715l-12,5a.99989.99989,0,0,0,.46191,1.91992l12.8623-.98926,8.83594,1.76709-.55591,2.2251H16.6181l-1.36224-2.72412Zm21.248,1.374-5.67676-1.13525A.98392.98392,0,0,0,35,43.00036c-.02539,0-.05078.001-.07715.00293l-6.78223.522,6.05957-2.5249H36.667ZM6,58.00036l7.19965-3H46.80036l7.19965,3Z"/></g></svg>