<?xml version="1.0" ?><svg viewBox="0 0 60 60" xmlns="http://www.w3.org/2000/svg"><title/><g id="colour"><polygon fill="#5d4038" points="28 37 23 32 59 1 28 37"/><polygon fill="#49322e" points="44.063 13.863 25.925 34.925 28 37 59 1 44.063 13.863"/><path d="M.75857,54l5,5,2.40765-2.40777a5.10335,5.10335,0,0,0,.95795-1.35484c6.02567-12.23633,14.14953-12.663,18.09674-15.59615a1.98446,1.98446,0,0,0,.18852-2.99039l-4.1816-4.18163c-1.20565-1.20566-2.44121-1.217-3.23129-.46731C17.06061,34.78758,12.58371,42.72662,6.96724,47.39A8.49732,8.49732,0,0,1,3.8931,49.117C1.7353,49.7222.75857,52.52614.75857,54Z" fill="#5d4038"/><path d="M27.40942,36.65082l-2-2a1.9845,1.9845,0,0,1-.18848,2.99042c-3.94727,2.93311-12.07111,3.3598-18.0968,15.59613a5.10145,5.10145,0,0,1-.95795,1.35486L3.75854,57l2,2L8.1662,56.59222a5.10145,5.10145,0,0,0,.95795-1.35486c6.0257-12.23633,14.14954-12.663,18.0968-15.59613A1.9845,1.9845,0,0,0,27.40942,36.65082Z" fill="#49322e"/></g><g data-name="Layer 1" id="Layer_1"><path d="M59.707.29332A.99838.99838,0,0,0,58.34766.24254L22.85126,30.80889a2.89313,2.89313,0,0,0-3.30145.46783,43.85169,43.85169,0,0,0-4.2168,5.22412C12.916,39.77477,9.90918,43.849,6.57031,46.621a7.47171,7.47171,0,0,1-2.70508,1.53369C1.22852,48.89391,0,52.07995,0,54.00036a1.00013,1.00013,0,0,0,.293.707l5,5a.99964.99964,0,0,0,1.41406,0l2.40723-2.40771a6.07771,6.07771,0,0,0,1.14844-1.62012C14.584,46.90563,19.86914,44.4945,24.11621,42.55748a21.656,21.656,0,0,0,3.94238-2.11328,2.93881,2.93881,0,0,0,1.1748-2.14795,2.99788,2.99788,0,0,0-.12524-1.05042L59.75781,1.6527A.99942.99942,0,0,0,59.707.29332Zm-25.88446,23.707h4.05206L27.94507,35.53173l-3.476-3.47681ZM8.46777,54.79577a4.0665,4.0665,0,0,1-.76758,1.08984L6,57.58629,2.02539,53.6112c.14648-1.22705.94141-3.12793,2.37988-3.53076A9.40824,9.40824,0,0,0,7.84766,48.16,36.38617,36.38617,0,0,0,12,44.00359V49.0841A32.88182,32.88182,0,0,0,8.46777,54.79577Zm18.39746-15.957a20.36262,20.36262,0,0,1-3.5791,1.89893A28.5745,28.5745,0,0,0,14,46.79253V41.58239c1.05463-1.3399,2.03925-2.67157,2.94141-3.894a43.13051,43.13051,0,0,1,3.98535-4.96045c.6416-.6084,1.498.11133,1.83594.44873l4.18066,4.18213a1.014,1.014,0,0,1,.29492.792A.93142.93142,0,0,1,26.86524,38.83873ZM39.5968,22.00036H36.14508L49.498,10.50182Z"/></g></svg>