<?xml version="1.0" ?><svg viewBox="0 0 60 60" xmlns="http://www.w3.org/2000/svg"><title/><g id="text"><text font-family="MyriadPro-Regular, Myriad Pro" font-size="9" transform="translate(3.54932 67.39014)"><tspan letter-spacing="0.00499em"/><tspan x="5.85889" y="0"/><tspan letter-spacing="-0.00602em" x="40.94971" y="0"/><tspan x="43.87451" y="0"/></text></g><g id="colour"><circle cx="30" cy="50" fill="#ff9f00" r="9"/><path d="M26.60846,58.33362a8.99625,8.99625,0,0,1,9.78308-14.66724,8.99822,8.99822,0,1,0-9.78308,14.66724Z" fill="#ffb15c"/><path d="M33.39154,41.66638a8.99625,8.99625,0,0,1-9.78308,14.66724,8.99822,8.99822,0,1,0,9.78308-14.66724Z" fill="#e28703"/><path d="M2,1C15,8,26,12,26,42L13,30C13,23,9,10,2,1Z" fill="#e0e0e0"/><path d="M6.837,4.13043C12.06506,12.63983,15,23.012,15,29l9.92786,9.16418C24.97064,39.39886,25,40.66486,25,42L12,30C12,23,8,10,1,1,3.00446,2.07928,4.96069,3.08746,6.837,4.13043Z" fill="#c9c8c7"/><path d="M60,1C47,8,36,12,36,42L49,30C49,23,53,10,60,1Z" fill="#e0e0e0"/><path d="M53.163,4.13043C47.93494,12.63983,45,23.012,45,29l-9.92786,9.16418C35.02936,39.39886,35,40.66486,35,42L48,30c0-7,4-20,11-29C56.99554,2.07928,55.03931,3.08746,53.163,4.13043Z" fill="#c9c8c7"/></g><g data-name="Layer 1" id="Layer_1"><path d="M59.76367.35485A.9986.9986,0,0,0,58.52637.12q-1.11768.60132-2.21389,1.1792C44.50324,7.55681,34.28986,12.98931,34.01312,40.84746a9.9292,9.9292,0,0,0-8.02625.00006C25.71015,12.98937,15.49677,7.55681,3.68748,1.29918Q2.59181.71911,1.47363.12A.99961.99961,0,0,0,.21094,1.61413C6.875,10.18248,11,23.02038,11,30.00036a.99965.99965,0,0,0,.32129.73486L23.74921,42.20714a10,10,0,1,0,12.50159,0L48.67871,30.73522A.99965.99965,0,0,0,49,30.00036c0-6.98,4.125-19.81787,10.78906-28.38623A.99924.99924,0,0,0,59.76367.35485ZM4.22656,3.85045c10.833,5.78516,19.25977,11.29736,19.751,35.84521L12.99512,29.558C12.85547,22.9569,9.64356,12.33092,4.22656,3.85045ZM36.235,45.00036H23.765a7.9793,7.9793,0,0,1,12.47009,0Zm-14.16559,6H37.93054a7.93316,7.93316,0,0,1-.51953,2H22.589A7.93316,7.93316,0,0,1,22.06946,51.00036Zm0-2a7.93316,7.93316,0,0,1,.51953-2H37.411a7.93316,7.93316,0,0,1,.51953,2Zm7.93054,9a7.98468,7.98468,0,0,1-6.235-3H36.235A7.98468,7.98468,0,0,1,30,58.00036ZM47.00488,29.558,36.02246,39.69567c.49121-24.54785,8.918-30.06006,19.751-35.84521C50.35645,12.33092,47.14453,22.9569,47.00488,29.558Z"/></g></svg>